# Wavefront OBJ file automatically generated by Tiled2Unity

# Vertices (Count = 275)
v -960 -64 0
v -1024 -64 0
v -1024 0 0
v -960 0 0
v -896 -64 0
v -896 0 0
v -832 -64 0
v -832 0 0
v -768 -64 0
v -768 0 0
v -704 -64 0
v -704 0 0
v -640 -64 0
v -640 0 0
v -576 -64 0
v -576 0 0
v -512 -64 0
v -512 0 0
v -448 -64 0
v -448 0 0
v -384 -64 0
v -384 0 0
v -320 -64 0
v -320 0 0
v -256 -64 0
v -256 0 0
v -192 -64 0
v -192 0 0
v -128 -64 0
v -128 0 0
v -64 -64 0
v -64 0 0
v 0 -64 0
v 0 0 0
v -960 -128 0
v -1024 -128 0
v -896 -128 0
v -832 -128 0
v -768 -128 0
v -704 -128 0
v -640 -128 0
v -576 -128 0
v -512 -128 0
v -448 -128 0
v -384 -128 0
v -320 -128 0
v -256 -128 0
v -192 -128 0
v -128 -128 0
v -64 -128 0
v 0 -128 0
v -960 -192 0
v -1024 -192 0
v -896 -192 0
v -832 -192 0
v -768 -192 0
v -704 -192 0
v -640 -192 0
v -576 -192 0
v -512 -192 0
v -448 -192 0
v -384 -192 0
v -320 -192 0
v -256 -192 0
v -192 -192 0
v -128 -192 0
v -64 -192 0
v 0 -192 0
v -960 -256 0
v -1024 -256 0
v -896 -256 0
v -832 -256 0
v -576 -256 0
v -640 -256 0
v -512 -256 0
v -448 -256 0
v -256 -256 0
v -320 -256 0
v -192 -256 0
v -128 -256 0
v -64 -256 0
v 0 -256 0
v -960 -320 0
v -1024 -320 0
v -896 -320 0
v -832 -320 0
v -768 -320 0
v -768 -256 0
v -704 -320 0
v -704 -256 0
v -640 -320 0
v -576 -320 0
v -512 -320 0
v -448 -320 0
v -384 -320 0
v -384 -256 0
v -320 -320 0
v -256 -320 0
v -192 -320 0
v -128 -320 0
v -64 -320 0
v 0 -320 0
v -960 -384 0
v -1024 -384 0
v -896 -384 0
v -832 -384 0
v -768 -384 0
v -704 -384 0
v -640 -384 0
v -576 -384 0
v -512 -384 0
v -448 -384 0
v -384 -384 0
v -320 -384 0
v -256 -384 0
v -192 -384 0
v -128 -384 0
v -64 -384 0
v 0 -384 0
v -960 -448 0
v -1024 -448 0
v -896 -448 0
v -832 -448 0
v -768 -448 0
v -704 -448 0
v -640 -448 0
v -576 -448 0
v -512 -448 0
v -448 -448 0
v -384 -448 0
v -320 -448 0
v -256 -448 0
v -192 -448 0
v -128 -448 0
v -64 -448 0
v 0 -448 0
v -960 -512 0
v -1024 -512 0
v -896 -512 0
v -832 -512 0
v -768 -512 0
v -704 -512 0
v -640 -512 0
v -576 -512 0
v -512 -512 0
v -448 -512 0
v -384 -512 0
v -320 -512 0
v -256 -512 0
v -192 -512 0
v -128 -512 0
v -64 -512 0
v 0 -512 0
v -960 -576 0
v -1024 -576 0
v -896 -576 0
v -832 -576 0
v -256 -576 0
v -320 -576 0
v -192 -576 0
v -128 -576 0
v -64 -576 0
v 0 -576 0
v -960 -640 0
v -1024 -640 0
v -896 -640 0
v -832 -640 0
v -256 -640 0
v -320 -640 0
v -192 -640 0
v -128 -640 0
v -64 -640 0
v 0 -640 0
v -960 -704 0
v -1024 -704 0
v -896 -704 0
v -832 -704 0
v -256 -704 0
v -320 -704 0
v -192 -704 0
v -128 -704 0
v -64 -704 0
v 0 -704 0
v -960 -768 0
v -1024 -768 0
v -896 -768 0
v -832 -768 0
v -768 -768 0
v -768 -704 0
v -704 -768 0
v -704 -704 0
v -640 -768 0
v -640 -704 0
v -576 -768 0
v -576 -704 0
v -512 -768 0
v -512 -704 0
v -448 -768 0
v -448 -704 0
v -384 -768 0
v -384 -704 0
v -320 -768 0
v -256 -768 0
v -192 -768 0
v -128 -768 0
v -64 -768 0
v 0 -768 0
v -960 -832 0
v -1024 -832 0
v -896 -832 0
v -832 -832 0
v -768 -832 0
v -704 -832 0
v -640 -832 0
v -576 -832 0
v -512 -832 0
v -448 -832 0
v -384 -832 0
v -320 -832 0
v -256 -832 0
v -192 -832 0
v -128 -832 0
v -64 -832 0
v 0 -832 0
v -960 -896 0
v -1024 -896 0
v -896 -896 0
v -832 -896 0
v -768 -896 0
v -704 -896 0
v -640 -896 0
v -576 -896 0
v -512 -896 0
v -448 -896 0
v -384 -896 0
v -320 -896 0
v -256 -896 0
v -192 -896 0
v -128 -896 0
v -64 -896 0
v 0 -896 0
v -960 -960 0
v -1024 -960 0
v -896 -960 0
v -832 -960 0
v -768 -960 0
v -704 -960 0
v -640 -960 0
v -576 -960 0
v -512 -960 0
v -448 -960 0
v -384 -960 0
v -320 -960 0
v -256 -960 0
v -192 -960 0
v -128 -960 0
v -64 -960 0
v 0 -960 0
v -960 -1024 0
v -1024 -1024 0
v -896 -1024 0
v -832 -1024 0
v -768 -1024 0
v -704 -1024 0
v -640 -1024 0
v -576 -1024 0
v -512 -1024 0
v -448 -1024 0
v -384 -1024 0
v -320 -1024 0
v -256 -1024 0
v -192 -1024 0
v -128 -1024 0
v -64 -1024 0
v 0 -1024 0

# Texture cooridinates (Count = 68)
vt 0.7501221 0.7501221
vt 0.8748779 0.7501221
vt 0.8748779 0.8748779
vt 0.7501221 0.8748779
vt 0.1251221 0.7501221
vt 0.2498779 0.7501221
vt 0.2498779 0.8748779
vt 0.1251221 0.8748779
vt 0.1251221 0.8751221
vt 0.2498779 0.8751221
vt 0.2498779 0.9998779
vt 0.1251221 0.9998779
vt 0.5001221 0.7501221
vt 0.6248779 0.7501221
vt 0.6248779 0.8748779
vt 0.5001221 0.8748779
vt 0.3751221 0.8751221
vt 0.4998779 0.8751221
vt 0.4998779 0.9998779
vt 0.3751221 0.9998779
vt 0.8751221 0.8751221
vt 0.9998779 0.8751221
vt 0.9998779 0.9998779
vt 0.8751221 0.9998779
vt 0.6251221 0.8751221
vt 0.7498779 0.8751221
vt 0.7498779 0.9998779
vt 0.6251221 0.9998779
vt 0.7501221 0.8751221
vt 0.8748779 0.8751221
vt 0.8748779 0.9998779
vt 0.7501221 0.9998779
vt 0.6251221 0.7501221
vt 0.7498779 0.7501221
vt 0.7498779 0.8748779
vt 0.6251221 0.8748779
vt 0.3751221 0.7501221
vt 0.4998779 0.7501221
vt 0.4998779 0.8748779
vt 0.3751221 0.8748779
vt 0.8751221 0.7501221
vt 0.9998779 0.7501221
vt 0.9998779 0.8748779
vt 0.8751221 0.8748779
vt 0.3751221 0.6251221
vt 0.4998779 0.6251221
vt 0.4998779 0.7498779
vt 0.3751221 0.7498779
vt 0.8751221 0.6251221
vt 0.9998779 0.6251221
vt 0.9998779 0.7498779
vt 0.8751221 0.7498779
vt 0.7501221 0.6251221
vt 0.8748779 0.6251221
vt 0.8748779 0.7498779
vt 0.7501221 0.7498779
vt 0.6251221 0.6251221
vt 0.7498779 0.6251221
vt 0.7498779 0.7498779
vt 0.6251221 0.7498779
vt 0.2501221 0.8751221
vt 0.3748779 0.8751221
vt 0.3748779 0.9998779
vt 0.2501221 0.9998779
vt 0.2501221 0.7501221
vt 0.3748779 0.7501221
vt 0.3748779 0.8748779
vt 0.2501221 0.8748779

# Normal
vn 0 0 -1

# Groups (Count = 1)

g mesh_0001
f 1/1/1 2/2/1 3/3/1 4/4/1
f 5/1/1 1/2/1 4/3/1 6/4/1
f 7/1/1 5/2/1 6/3/1 8/4/1
f 9/1/1 7/2/1 8/3/1 10/4/1
f 11/1/1 9/2/1 10/3/1 12/4/1
f 13/1/1 11/2/1 12/3/1 14/4/1
f 15/1/1 13/2/1 14/3/1 16/4/1
f 17/1/1 15/2/1 16/3/1 18/4/1
f 19/1/1 17/2/1 18/3/1 20/4/1
f 21/1/1 19/2/1 20/3/1 22/4/1
f 23/1/1 21/2/1 22/3/1 24/4/1
f 25/1/1 23/2/1 24/3/1 26/4/1
f 27/1/1 25/2/1 26/3/1 28/4/1
f 29/1/1 27/2/1 28/3/1 30/4/1
f 31/1/1 29/2/1 30/3/1 32/4/1
f 33/5/1 31/6/1 32/7/1 34/8/1
f 35/9/1 36/10/1 2/11/1 1/12/1
f 37/13/1 35/14/1 1/15/1 5/16/1
f 38/17/1 37/18/1 5/19/1 7/20/1
f 39/17/1 38/18/1 7/19/1 9/20/1
f 40/17/1 39/18/1 9/19/1 11/20/1
f 41/17/1 40/18/1 11/19/1 13/20/1
f 42/17/1 41/18/1 13/19/1 15/20/1
f 43/17/1 42/18/1 15/19/1 17/20/1
f 44/17/1 43/18/1 17/19/1 19/20/1
f 45/17/1 44/18/1 19/19/1 21/20/1
f 46/17/1 45/18/1 21/19/1 23/20/1
f 47/17/1 46/18/1 23/19/1 25/20/1
f 48/17/1 47/18/1 25/19/1 27/20/1
f 49/21/1 48/22/1 27/23/1 29/24/1
f 50/25/1 49/26/1 29/27/1 31/28/1
f 51/5/1 50/6/1 31/7/1 33/8/1
f 52/9/1 53/10/1 36/11/1 35/12/1
f 54/13/1 52/14/1 35/15/1 37/16/1
f 55/21/1 54/22/1 37/23/1 38/24/1
f 56/29/1 55/30/1 38/31/1 39/32/1
f 57/29/1 56/30/1 39/31/1 40/32/1
f 58/29/1 57/30/1 40/31/1 41/32/1
f 59/25/1 58/26/1 41/27/1 42/28/1
f 60/13/1 59/14/1 42/15/1 43/16/1
f 61/21/1 60/22/1 43/23/1 44/24/1
f 62/29/1 61/30/1 44/31/1 45/32/1
f 63/29/1 62/30/1 45/31/1 46/32/1
f 64/25/1 63/26/1 46/27/1 47/28/1
f 65/13/1 64/14/1 47/15/1 48/16/1
f 66/5/1 65/6/1 48/7/1 49/8/1
f 67/9/1 66/10/1 49/11/1 50/12/1
f 68/5/1 67/6/1 50/7/1 51/8/1
f 69/33/1 70/34/1 53/35/1 52/36/1
f 71/13/1 69/14/1 52/15/1 54/16/1
f 72/5/1 71/6/1 54/7/1 55/8/1
f 73/9/1 74/10/1 58/11/1 59/12/1
f 75/13/1 73/14/1 59/15/1 60/16/1
f 76/5/1 75/6/1 60/7/1 61/8/1
f 77/9/1 78/10/1 63/11/1 64/12/1
f 79/13/1 77/14/1 64/15/1 65/16/1
f 80/5/1 79/6/1 65/7/1 66/8/1
f 81/9/1 80/10/1 66/11/1 67/12/1
f 82/5/1 81/6/1 67/7/1 68/8/1
f 83/17/1 84/18/1 70/19/1 69/20/1
f 85/37/1 83/38/1 69/39/1 71/40/1
f 86/41/1 85/42/1 71/43/1 72/44/1
f 87/1/1 86/2/1 72/3/1 88/4/1
f 89/1/1 87/2/1 88/3/1 90/4/1
f 91/1/1 89/2/1 90/3/1 74/4/1
f 92/33/1 91/34/1 74/35/1 73/36/1
f 93/13/1 92/14/1 73/15/1 75/16/1
f 94/41/1 93/42/1 75/43/1 76/44/1
f 95/1/1 94/2/1 76/3/1 96/4/1
f 97/1/1 95/2/1 96/3/1 78/4/1
f 98/33/1 97/34/1 78/35/1 77/36/1
f 99/13/1 98/14/1 77/15/1 79/16/1
f 100/5/1 99/6/1 79/7/1 80/8/1
f 101/9/1 100/10/1 80/11/1 81/12/1
f 102/5/1 101/6/1 81/7/1 82/8/1
f 103/45/1 104/46/1 84/47/1 83/48/1
f 105/37/1 103/38/1 83/39/1 85/40/1
f 106/49/1 105/50/1 85/51/1 86/52/1
f 107/53/1 106/54/1 86/55/1 87/56/1
f 108/53/1 107/54/1 87/55/1 89/56/1
f 109/53/1 108/54/1 89/55/1 91/56/1
f 110/57/1 109/58/1 91/59/1 92/60/1
f 111/13/1 110/14/1 92/15/1 93/16/1
f 112/49/1 111/50/1 93/51/1 94/52/1
f 113/53/1 112/54/1 94/55/1 95/56/1
f 114/53/1 113/54/1 95/55/1 97/56/1
f 115/57/1 114/58/1 97/59/1 98/60/1
f 116/13/1 115/14/1 98/15/1 99/16/1
f 117/5/1 116/6/1 99/7/1 100/8/1
f 118/9/1 117/10/1 100/11/1 101/12/1
f 119/5/1 118/6/1 101/7/1 102/8/1
f 120/25/1 121/26/1 104/27/1 103/28/1
f 122/13/1 120/14/1 103/15/1 105/16/1
f 123/17/1 122/18/1 105/19/1 106/20/1
f 124/17/1 123/18/1 106/19/1 107/20/1
f 125/17/1 124/18/1 107/19/1 108/20/1
f 126/17/1 125/18/1 108/19/1 109/20/1
f 127/17/1 126/18/1 109/19/1 110/20/1
f 128/37/1 127/38/1 110/39/1 111/40/1
f 129/17/1 128/18/1 111/19/1 112/20/1
f 130/17/1 129/18/1 112/19/1 113/20/1
f 131/17/1 130/18/1 113/19/1 114/20/1
f 132/17/1 131/18/1 114/19/1 115/20/1
f 133/37/1 132/38/1 115/39/1 116/40/1
f 134/5/1 133/6/1 116/7/1 117/8/1
f 135/9/1 134/10/1 117/11/1 118/12/1
f 136/5/1 135/6/1 118/7/1 119/8/1
f 137/9/1 138/10/1 121/11/1 120/12/1
f 139/13/1 137/14/1 120/15/1 122/16/1
f 140/21/1 139/22/1 122/23/1 123/24/1
f 141/29/1 140/30/1 123/31/1 124/32/1
f 142/29/1 141/30/1 124/31/1 125/32/1
f 143/29/1 142/30/1 125/31/1 126/32/1
f 144/29/1 143/30/1 126/31/1 127/32/1
f 145/29/1 144/30/1 127/31/1 128/32/1
f 146/29/1 145/30/1 128/31/1 129/32/1
f 147/29/1 146/30/1 129/31/1 130/32/1
f 148/29/1 147/30/1 130/31/1 131/32/1
f 149/25/1 148/26/1 131/27/1 132/28/1
f 150/13/1 149/14/1 132/15/1 133/16/1
f 151/5/1 150/6/1 133/7/1 134/8/1
f 152/9/1 151/10/1 134/11/1 135/12/1
f 153/5/1 152/6/1 135/7/1 136/8/1
f 154/9/1 155/10/1 138/11/1 137/12/1
f 156/13/1 154/14/1 137/15/1 139/16/1
f 157/5/1 156/6/1 139/7/1 140/8/1
f 158/9/1 159/10/1 148/11/1 149/12/1
f 160/13/1 158/14/1 149/15/1 150/16/1
f 161/5/1 160/6/1 150/7/1 151/8/1
f 162/9/1 161/10/1 151/11/1 152/12/1
f 163/5/1 162/6/1 152/7/1 153/8/1
f 164/9/1 165/10/1 155/11/1 154/12/1
f 166/13/1 164/14/1 154/15/1 156/16/1
f 167/5/1 166/6/1 156/7/1 157/8/1
f 168/9/1 169/10/1 159/11/1 158/12/1
f 170/13/1 168/14/1 158/15/1 160/16/1
f 171/5/1 170/6/1 160/7/1 161/8/1
f 172/9/1 171/10/1 161/11/1 162/12/1
f 173/5/1 172/6/1 162/7/1 163/8/1
f 174/9/1 175/10/1 165/11/1 164/12/1
f 176/13/1 174/14/1 164/15/1 166/16/1
f 177/5/1 176/6/1 166/7/1 167/8/1
f 178/9/1 179/10/1 169/11/1 168/12/1
f 180/13/1 178/14/1 168/15/1 170/16/1
f 181/5/1 180/6/1 170/7/1 171/8/1
f 182/9/1 181/10/1 171/11/1 172/12/1
f 183/5/1 182/6/1 172/7/1 173/8/1
f 184/9/1 185/10/1 175/11/1 174/12/1
f 186/13/1 184/14/1 174/15/1 176/16/1
f 187/41/1 186/42/1 176/43/1 177/44/1
f 188/1/1 187/2/1 177/3/1 189/4/1
f 190/1/1 188/2/1 189/3/1 191/4/1
f 192/1/1 190/2/1 191/3/1 193/4/1
f 194/1/1 192/2/1 193/3/1 195/4/1
f 196/1/1 194/2/1 195/3/1 197/4/1
f 198/1/1 196/2/1 197/3/1 199/4/1
f 200/1/1 198/2/1 199/3/1 201/4/1
f 202/1/1 200/2/1 201/3/1 179/4/1
f 203/33/1 202/34/1 179/35/1 178/36/1
f 204/13/1 203/14/1 178/15/1 180/16/1
f 205/5/1 204/6/1 180/7/1 181/8/1
f 206/9/1 205/10/1 181/11/1 182/12/1
f 207/5/1 206/6/1 182/7/1 183/8/1
f 208/9/1 209/10/1 185/11/1 184/12/1
f 210/13/1 208/14/1 184/15/1 186/16/1
f 211/49/1 210/50/1 186/51/1 187/52/1
f 212/53/1 211/54/1 187/55/1 188/56/1
f 213/53/1 212/54/1 188/55/1 190/56/1
f 214/53/1 213/54/1 190/55/1 192/56/1
f 215/53/1 214/54/1 192/55/1 194/56/1
f 216/53/1 215/54/1 194/55/1 196/56/1
f 217/53/1 216/54/1 196/55/1 198/56/1
f 218/53/1 217/54/1 198/55/1 200/56/1
f 219/53/1 218/54/1 200/55/1 202/56/1
f 220/57/1 219/58/1 202/59/1 203/60/1
f 221/13/1 220/14/1 203/15/1 204/16/1
f 222/41/1 221/42/1 204/43/1 205/44/1
f 223/33/1 222/34/1 205/35/1 206/36/1
f 224/5/1 223/6/1 206/7/1 207/8/1
f 225/9/1 226/10/1 209/11/1 208/12/1
f 227/13/1 225/14/1 208/15/1 210/16/1
f 228/17/1 227/18/1 210/19/1 211/20/1
f 229/17/1 228/18/1 211/19/1 212/20/1
f 230/17/1 229/18/1 212/19/1 213/20/1
f 231/17/1 230/18/1 213/19/1 214/20/1
f 232/17/1 231/18/1 214/19/1 215/20/1
f 233/17/1 232/18/1 215/19/1 216/20/1
f 234/17/1 233/18/1 216/19/1 217/20/1
f 235/17/1 234/18/1 217/19/1 218/20/1
f 236/17/1 235/18/1 218/19/1 219/20/1
f 237/17/1 236/18/1 219/19/1 220/20/1
f 238/37/1 237/38/1 220/39/1 221/40/1
f 239/49/1 238/50/1 221/51/1 222/52/1
f 240/53/1 239/54/1 222/55/1 223/56/1
f 241/5/1 240/6/1 223/7/1 224/8/1
f 242/9/1 243/10/1 226/11/1 225/12/1
f 244/29/1 242/30/1 225/31/1 227/32/1
f 245/29/1 244/30/1 227/31/1 228/32/1
f 246/29/1 245/30/1 228/31/1 229/32/1
f 247/29/1 246/30/1 229/31/1 230/32/1
f 248/29/1 247/30/1 230/31/1 231/32/1
f 249/29/1 248/30/1 231/31/1 232/32/1
f 250/29/1 249/30/1 232/31/1 233/32/1
f 251/29/1 250/30/1 233/31/1 234/32/1
f 252/29/1 251/30/1 234/31/1 235/32/1
f 253/29/1 252/30/1 235/31/1 236/32/1
f 254/25/1 253/26/1 236/27/1 237/28/1
f 255/13/1 254/14/1 237/15/1 238/16/1
f 256/17/1 255/18/1 238/19/1 239/20/1
f 257/61/1 256/62/1 239/63/1 240/64/1
f 258/5/1 257/6/1 240/7/1 241/8/1
f 259/9/1 260/10/1 243/11/1 242/12/1
f 261/29/1 259/30/1 242/31/1 244/32/1
f 262/29/1 261/30/1 244/31/1 245/32/1
f 263/29/1 262/30/1 245/31/1 246/32/1
f 264/29/1 263/30/1 246/31/1 247/32/1
f 265/29/1 264/30/1 247/31/1 248/32/1
f 266/29/1 265/30/1 248/31/1 249/32/1
f 267/29/1 266/30/1 249/31/1 250/32/1
f 268/29/1 267/30/1 250/31/1 251/32/1
f 269/29/1 268/30/1 251/31/1 252/32/1
f 270/29/1 269/30/1 252/31/1 253/32/1
f 271/29/1 270/30/1 253/31/1 254/32/1
f 272/13/1 271/14/1 254/15/1 255/16/1
f 273/65/1 272/66/1 255/67/1 256/68/1
f 274/29/1 273/30/1 256/31/1 257/32/1
f 275/29/1 274/30/1 257/31/1 258/32/1

