# Wavefront OBJ file automatically generated by Tiled2Unity

# Vertices (Count = 269)
v -960 -64 0
v -1024 -64 0
v -1024 0 0
v -960 0 0
v -896 -64 0
v -896 0 0
v -832 -64 0
v -832 0 0
v -768 -64 0
v -768 0 0
v -704 -64 0
v -704 0 0
v -640 -64 0
v -640 0 0
v -576 -64 0
v -576 0 0
v -512 -64 0
v -512 0 0
v -448 -64 0
v -448 0 0
v -384 -64 0
v -384 0 0
v -320 -64 0
v -320 0 0
v -256 -64 0
v -256 0 0
v -192 -64 0
v -192 0 0
v -128 -64 0
v -128 0 0
v -64 -64 0
v -64 0 0
v 0 -64 0
v 0 0 0
v -960 -128 0
v -1024 -128 0
v -896 -128 0
v -832 -128 0
v -768 -128 0
v -704 -128 0
v -640 -128 0
v -576 -128 0
v -512 -128 0
v -448 -128 0
v -384 -128 0
v -320 -128 0
v -256 -128 0
v -192 -128 0
v -128 -128 0
v -64 -128 0
v 0 -128 0
v -960 -192 0
v -1024 -192 0
v -512 -192 0
v -576 -192 0
v -448 -192 0
v -384 -192 0
v -320 -192 0
v -256 -192 0
v -192 -192 0
v -128 -192 0
v -64 -192 0
v 0 -192 0
v -960 -256 0
v -1024 -256 0
v -512 -256 0
v -576 -256 0
v -448 -256 0
v -384 -256 0
v -320 -256 0
v -256 -256 0
v -192 -256 0
v -128 -256 0
v -64 -256 0
v 0 -256 0
v -960 -320 0
v -1024 -320 0
v -512 -320 0
v -576 -320 0
v -448 -320 0
v -384 -320 0
v -128 -320 0
v -192 -320 0
v -64 -320 0
v 0 -320 0
v -960 -384 0
v -1024 -384 0
v -896 -384 0
v -896 -320 0
v -832 -384 0
v -832 -320 0
v -768 -384 0
v -768 -320 0
v -704 -384 0
v -704 -320 0
v -640 -384 0
v -640 -320 0
v -576 -384 0
v -512 -384 0
v -448 -384 0
v -384 -384 0
v -128 -384 0
v -192 -384 0
v -64 -384 0
v 0 -384 0
v -960 -448 0
v -1024 -448 0
v -896 -448 0
v -832 -448 0
v -768 -448 0
v -704 -448 0
v -640 -448 0
v -576 -448 0
v -512 -448 0
v -448 -448 0
v -384 -448 0
v -128 -448 0
v -192 -448 0
v -64 -448 0
v 0 -448 0
v -960 -512 0
v -1024 -512 0
v -896 -512 0
v -832 -512 0
v -768 -512 0
v -704 -512 0
v -640 -512 0
v -576 -512 0
v -512 -512 0
v -448 -512 0
v -384 -512 0
v -320 -512 0
v -320 -448 0
v -256 -512 0
v -256 -448 0
v -192 -512 0
v -128 -512 0
v -64 -512 0
v 0 -512 0
v -960 -576 0
v -1024 -576 0
v -896 -576 0
v -832 -576 0
v -768 -576 0
v -704 -576 0
v -640 -576 0
v -576 -576 0
v -512 -576 0
v -448 -576 0
v -384 -576 0
v -320 -576 0
v -256 -576 0
v -192 -576 0
v -128 -576 0
v -64 -576 0
v 0 -576 0
v -960 -640 0
v -1024 -640 0
v -896 -640 0
v -832 -640 0
v -512 -640 0
v -576 -640 0
v -448 -640 0
v -384 -640 0
v -320 -640 0
v -256 -640 0
v -192 -640 0
v -128 -640 0
v -64 -640 0
v 0 -640 0
v -960 -704 0
v -1024 -704 0
v -896 -704 0
v -832 -704 0
v -512 -704 0
v -576 -704 0
v -448 -704 0
v -384 -704 0
v -320 -704 0
v -256 -704 0
v -192 -704 0
v -128 -704 0
v -64 -704 0
v 0 -704 0
v -960 -768 0
v -1024 -768 0
v -896 -768 0
v -832 -768 0
v -512 -768 0
v -576 -768 0
v -448 -768 0
v -384 -768 0
v 0 -768 0
v -64 -768 0
v -960 -832 0
v -1024 -832 0
v -896 -832 0
v -832 -832 0
v -768 -832 0
v -768 -768 0
v -704 -832 0
v -704 -768 0
v -640 -832 0
v -640 -768 0
v -576 -832 0
v -512 -832 0
v -448 -832 0
v -384 -832 0
v -320 -832 0
v -320 -768 0
v -256 -832 0
v -256 -768 0
v -192 -832 0
v -192 -768 0
v -128 -832 0
v -128 -768 0
v -64 -832 0
v 0 -832 0
v -960 -896 0
v -1024 -896 0
v -896 -896 0
v -832 -896 0
v -768 -896 0
v -704 -896 0
v -640 -896 0
v -576 -896 0
v -512 -896 0
v -448 -896 0
v -384 -896 0
v -320 -896 0
v -256 -896 0
v -192 -896 0
v -128 -896 0
v -64 -896 0
v 0 -896 0
v -960 -960 0
v -1024 -960 0
v -896 -960 0
v -832 -960 0
v -768 -960 0
v -704 -960 0
v -640 -960 0
v -576 -960 0
v -512 -960 0
v -448 -960 0
v -384 -960 0
v -320 -960 0
v -256 -960 0
v -192 -960 0
v -128 -960 0
v -64 -960 0
v 0 -960 0
v -960 -1024 0
v -1024 -1024 0
v -896 -1024 0
v -832 -1024 0
v -768 -1024 0
v -704 -1024 0
v -640 -1024 0
v -576 -1024 0
v -512 -1024 0
v -448 -1024 0
v -384 -1024 0
v -320 -1024 0
v -256 -1024 0
v -192 -1024 0
v -128 -1024 0
v -64 -1024 0
v 0 -1024 0

# Texture cooridinates (Count = 80)
vt 0.8751221 0.7501221
vt 0.9998779 0.7501221
vt 0.9998779 0.8748779
vt 0.8751221 0.8748779
vt 0.7501221 0.7501221
vt 0.8748779 0.7501221
vt 0.8748779 0.8748779
vt 0.7501221 0.8748779
vt 0.6251221 0.7501221
vt 0.7498779 0.7501221
vt 0.7498779 0.8748779
vt 0.6251221 0.8748779
vt 0.1251221 0.8751221
vt 0.2498779 0.8751221
vt 0.2498779 0.9998779
vt 0.1251221 0.9998779
vt 0.7501221 0.6251221
vt 0.8748779 0.6251221
vt 0.8748779 0.7498779
vt 0.7501221 0.7498779
vt 0.1251221 0.7501221
vt 0.2498779 0.7501221
vt 0.2498779 0.8748779
vt 0.1251221 0.8748779
vt 0.5001221 0.8751221
vt 0.6248779 0.8751221
vt 0.6248779 0.9998779
vt 0.5001221 0.9998779
vt 0.3751221 0.8751221
vt 0.4998779 0.8751221
vt 0.4998779 0.9998779
vt 0.3751221 0.9998779
vt 0.2501221 0.8751221
vt 0.3748779 0.8751221
vt 0.3748779 0.9998779
vt 0.2501221 0.9998779
vt 0.5001221 0.7501221
vt 0.6248779 0.7501221
vt 0.6248779 0.8748779
vt 0.5001221 0.8748779
vt 0.8751221 0.8751221
vt 0.9998779 0.8751221
vt 0.9998779 0.9998779
vt 0.8751221 0.9998779
vt 0.7501221 0.8751221
vt 0.8748779 0.8751221
vt 0.8748779 0.9998779
vt 0.7501221 0.9998779
vt 0.6251221 0.8751221
vt 0.7498779 0.8751221
vt 0.7498779 0.9998779
vt 0.6251221 0.9998779
vt 0.2501221 0.7501221
vt 0.3748779 0.7501221
vt 0.3748779 0.8748779
vt 0.2501221 0.8748779
vt 0.3751221 0.6251221
vt 0.4998779 0.6251221
vt 0.4998779 0.7498779
vt 0.3751221 0.7498779
vt 0.6251221 0.6251221
vt 0.7498779 0.6251221
vt 0.7498779 0.7498779
vt 0.6251221 0.7498779
vt 0.3751221 0.7501221
vt 0.4998779 0.7501221
vt 0.4998779 0.8748779
vt 0.3751221 0.8748779
vt 0.8751221 0.6251221
vt 0.9998779 0.6251221
vt 0.9998779 0.7498779
vt 0.8751221 0.7498779
vt 0.2501221 0.6251221
vt 0.3748779 0.6251221
vt 0.3748779 0.7498779
vt 0.2501221 0.7498779
vt 0.5001221 0.6251221
vt 0.6248779 0.6251221
vt 0.6248779 0.7498779
vt 0.5001221 0.7498779

# Normal
vn 0 0 -1

# Groups (Count = 1)

g mesh_0001
f 1/1/1 2/2/1 3/3/1 4/4/1
f 5/5/1 1/6/1 4/7/1 6/8/1
f 7/5/1 5/6/1 6/7/1 8/8/1
f 9/5/1 7/6/1 8/7/1 10/8/1
f 11/5/1 9/6/1 10/7/1 12/8/1
f 13/5/1 11/6/1 12/7/1 14/8/1
f 15/5/1 13/6/1 14/7/1 16/8/1
f 17/5/1 15/6/1 16/7/1 18/8/1
f 19/5/1 17/6/1 18/7/1 20/8/1
f 21/5/1 19/6/1 20/7/1 22/8/1
f 23/5/1 21/6/1 22/7/1 24/8/1
f 25/5/1 23/6/1 24/7/1 26/8/1
f 27/5/1 25/6/1 26/7/1 28/8/1
f 29/5/1 27/6/1 28/7/1 30/8/1
f 31/5/1 29/6/1 30/7/1 32/8/1
f 33/9/1 31/10/1 32/11/1 34/12/1
f 35/13/1 36/14/1 2/15/1 1/16/1
f 37/17/1 35/18/1 1/19/1 5/20/1
f 38/17/1 37/18/1 5/19/1 7/20/1
f 39/17/1 38/18/1 7/19/1 9/20/1
f 40/17/1 39/18/1 9/19/1 11/20/1
f 41/17/1 40/18/1 11/19/1 13/20/1
f 42/17/1 41/18/1 13/19/1 15/20/1
f 43/17/1 42/18/1 15/19/1 17/20/1
f 44/17/1 43/18/1 17/19/1 19/20/1
f 45/17/1 44/18/1 19/19/1 21/20/1
f 46/17/1 45/18/1 21/19/1 23/20/1
f 47/17/1 46/18/1 23/19/1 25/20/1
f 48/17/1 47/18/1 25/19/1 27/20/1
f 49/17/1 48/18/1 27/19/1 29/20/1
f 50/17/1 49/18/1 29/19/1 31/20/1
f 51/21/1 50/22/1 31/23/1 33/24/1
f 52/13/1 53/14/1 36/15/1 35/16/1
f 54/13/1 55/14/1 42/15/1 43/16/1
f 56/25/1 54/26/1 43/27/1 44/28/1
f 57/29/1 56/30/1 44/31/1 45/32/1
f 58/29/1 57/30/1 45/31/1 46/32/1
f 59/29/1 58/30/1 46/31/1 47/32/1
f 60/29/1 59/30/1 47/31/1 48/32/1
f 61/29/1 60/30/1 48/31/1 49/32/1
f 62/33/1 61/34/1 49/35/1 50/36/1
f 63/21/1 62/22/1 50/23/1 51/24/1
f 64/13/1 65/14/1 53/15/1 52/16/1
f 66/13/1 67/14/1 55/15/1 54/16/1
f 68/37/1 66/38/1 54/39/1 56/40/1
f 69/41/1 68/42/1 56/43/1 57/44/1
f 70/45/1 69/46/1 57/47/1 58/48/1
f 71/45/1 70/46/1 58/47/1 59/48/1
f 72/45/1 71/46/1 59/47/1 60/48/1
f 73/49/1 72/50/1 60/51/1 61/52/1
f 74/53/1 73/54/1 61/55/1 62/56/1
f 75/21/1 74/22/1 62/23/1 63/24/1
f 76/13/1 77/14/1 65/15/1 64/16/1
f 78/13/1 79/14/1 67/15/1 66/16/1
f 80/37/1 78/38/1 66/39/1 68/40/1
f 81/21/1 80/22/1 68/23/1 69/24/1
f 82/13/1 83/14/1 72/15/1 73/16/1
f 84/53/1 82/54/1 73/55/1 74/56/1
f 85/29/1 84/30/1 74/31/1 75/32/1
f 86/13/1 87/14/1 77/15/1 76/16/1
f 88/5/1 86/6/1 76/7/1 89/8/1
f 90/5/1 88/6/1 89/7/1 91/8/1
f 92/5/1 90/6/1 91/7/1 93/8/1
f 94/5/1 92/6/1 93/7/1 95/8/1
f 96/5/1 94/6/1 95/7/1 97/8/1
f 98/5/1 96/6/1 97/7/1 79/8/1
f 99/9/1 98/10/1 79/11/1 78/12/1
f 100/37/1 99/38/1 78/39/1 80/40/1
f 101/21/1 100/22/1 80/23/1 81/24/1
f 102/13/1 103/14/1 83/15/1 82/16/1
f 104/53/1 102/54/1 82/55/1 84/56/1
f 105/57/1 104/58/1 84/59/1 85/60/1
f 106/13/1 107/14/1 87/15/1 86/16/1
f 108/17/1 106/18/1 86/19/1 88/20/1
f 109/17/1 108/18/1 88/19/1 90/20/1
f 110/17/1 109/18/1 90/19/1 92/20/1
f 111/17/1 110/18/1 92/19/1 94/20/1
f 112/17/1 111/18/1 94/19/1 96/20/1
f 113/17/1 112/18/1 96/19/1 98/20/1
f 114/61/1 113/62/1 98/63/1 99/64/1
f 115/37/1 114/38/1 99/39/1 100/40/1
f 116/21/1 115/22/1 100/23/1 101/24/1
f 117/13/1 118/14/1 103/15/1 102/16/1
f 119/53/1 117/54/1 102/55/1 104/56/1
f 120/21/1 119/22/1 104/23/1 105/24/1
f 121/13/1 122/14/1 107/15/1 106/16/1
f 123/25/1 121/26/1 106/27/1 108/28/1
f 124/29/1 123/30/1 108/31/1 109/32/1
f 125/29/1 124/30/1 109/31/1 110/32/1
f 126/29/1 125/30/1 110/31/1 111/32/1
f 127/29/1 126/30/1 111/31/1 112/32/1
f 128/29/1 127/30/1 112/31/1 113/32/1
f 129/29/1 128/30/1 113/31/1 114/32/1
f 130/65/1 129/66/1 114/67/1 115/68/1
f 131/1/1 130/2/1 115/3/1 116/4/1
f 132/5/1 131/6/1 116/7/1 133/8/1
f 134/5/1 132/6/1 133/7/1 135/8/1
f 136/5/1 134/6/1 135/7/1 118/8/1
f 137/9/1 136/10/1 118/11/1 117/12/1
f 138/53/1 137/54/1 117/55/1 119/56/1
f 139/21/1 138/22/1 119/23/1 120/24/1
f 140/13/1 141/14/1 122/15/1 121/16/1
f 142/37/1 140/38/1 121/39/1 123/40/1
f 143/41/1 142/42/1 123/43/1 124/44/1
f 144/45/1 143/46/1 124/47/1 125/48/1
f 145/45/1 144/46/1 125/47/1 126/48/1
f 146/45/1 145/46/1 126/47/1 127/48/1
f 147/45/1 146/46/1 127/47/1 128/48/1
f 148/49/1 147/50/1 128/51/1 129/52/1
f 149/37/1 148/38/1 129/39/1 130/40/1
f 150/69/1 149/70/1 130/71/1 131/72/1
f 151/17/1 150/18/1 131/19/1 132/20/1
f 152/17/1 151/18/1 132/19/1 134/20/1
f 153/17/1 152/18/1 134/19/1 136/20/1
f 154/61/1 153/62/1 136/63/1 137/64/1
f 155/53/1 154/54/1 137/55/1 138/56/1
f 156/21/1 155/22/1 138/23/1 139/24/1
f 157/13/1 158/14/1 141/15/1 140/16/1
f 159/37/1 157/38/1 140/39/1 142/40/1
f 160/21/1 159/22/1 142/23/1 143/24/1
f 161/13/1 162/14/1 147/15/1 148/16/1
f 163/37/1 161/38/1 148/39/1 149/40/1
f 164/57/1 163/58/1 149/59/1 150/60/1
f 165/57/1 164/58/1 150/59/1 151/60/1
f 166/57/1 165/58/1 151/59/1 152/60/1
f 167/57/1 166/58/1 152/59/1 153/60/1
f 168/57/1 167/58/1 153/59/1 154/60/1
f 169/73/1 168/74/1 154/75/1 155/76/1
f 170/21/1 169/22/1 155/23/1 156/24/1
f 171/13/1 172/14/1 158/15/1 157/16/1
f 173/37/1 171/38/1 157/39/1 159/40/1
f 174/21/1 173/22/1 159/23/1 160/24/1
f 175/13/1 176/14/1 162/15/1 161/16/1
f 177/37/1 175/38/1 161/39/1 163/40/1
f 178/41/1 177/42/1 163/43/1 164/44/1
f 179/45/1 178/46/1 164/47/1 165/48/1
f 180/45/1 179/46/1 165/47/1 166/48/1
f 181/45/1 180/46/1 166/47/1 167/48/1
f 182/45/1 181/46/1 167/47/1 168/48/1
f 183/45/1 182/46/1 168/47/1 169/48/1
f 184/21/1 183/22/1 169/23/1 170/24/1
f 185/13/1 186/14/1 172/15/1 171/16/1
f 187/37/1 185/38/1 171/39/1 173/40/1
f 188/21/1 187/22/1 173/23/1 174/24/1
f 189/13/1 190/14/1 176/15/1 175/16/1
f 191/37/1 189/38/1 175/39/1 177/40/1
f 192/21/1 191/22/1 177/23/1 178/24/1
f 193/21/1 194/22/1 183/23/1 184/24/1
f 195/13/1 196/14/1 186/15/1 185/16/1
f 197/37/1 195/38/1 185/39/1 187/40/1
f 198/1/1 197/2/1 187/3/1 188/4/1
f 199/5/1 198/6/1 188/7/1 200/8/1
f 201/5/1 199/6/1 200/7/1 202/8/1
f 203/5/1 201/6/1 202/7/1 204/8/1
f 205/5/1 203/6/1 204/7/1 190/8/1
f 206/9/1 205/10/1 190/11/1 189/12/1
f 207/37/1 206/38/1 189/39/1 191/40/1
f 208/1/1 207/2/1 191/3/1 192/4/1
f 209/5/1 208/6/1 192/7/1 210/8/1
f 211/5/1 209/6/1 210/7/1 212/8/1
f 213/5/1 211/6/1 212/7/1 214/8/1
f 215/5/1 213/6/1 214/7/1 216/8/1
f 217/5/1 215/6/1 216/7/1 194/8/1
f 218/21/1 217/22/1 194/23/1 193/24/1
f 219/13/1 220/14/1 196/15/1 195/16/1
f 221/37/1 219/38/1 195/39/1 197/40/1
f 222/69/1 221/70/1 197/71/1 198/72/1
f 223/17/1 222/18/1 198/19/1 199/20/1
f 224/17/1 223/18/1 199/19/1 201/20/1
f 225/17/1 224/18/1 201/19/1 203/20/1
f 226/17/1 225/18/1 203/19/1 205/20/1
f 227/61/1 226/62/1 205/63/1 206/64/1
f 228/37/1 227/38/1 206/39/1 207/40/1
f 229/69/1 228/70/1 207/71/1 208/72/1
f 230/17/1 229/18/1 208/19/1 209/20/1
f 231/17/1 230/18/1 209/19/1 211/20/1
f 232/17/1 231/18/1 211/19/1 213/20/1
f 233/17/1 232/18/1 213/19/1 215/20/1
f 234/17/1 233/18/1 215/19/1 217/20/1
f 235/21/1 234/22/1 217/23/1 218/24/1
f 236/13/1 237/14/1 220/15/1 219/16/1
f 238/77/1 236/78/1 219/79/1 221/80/1
f 239/29/1 238/30/1 221/31/1 222/32/1
f 240/29/1 239/30/1 222/31/1 223/32/1
f 241/29/1 240/30/1 223/31/1 224/32/1
f 242/29/1 241/30/1 224/31/1 225/32/1
f 243/29/1 242/30/1 225/31/1 226/32/1
f 244/29/1 243/30/1 226/31/1 227/32/1
f 245/65/1 244/66/1 227/67/1 228/68/1
f 246/57/1 245/58/1 228/59/1 229/60/1
f 247/57/1 246/58/1 229/59/1 230/60/1
f 248/57/1 247/58/1 230/59/1 231/60/1
f 249/57/1 248/58/1 231/59/1 232/60/1
f 250/57/1 249/58/1 232/59/1 233/60/1
f 251/73/1 250/74/1 233/75/1 234/76/1
f 252/21/1 251/22/1 234/23/1 235/24/1
f 253/45/1 254/46/1 237/47/1 236/48/1
f 255/45/1 253/46/1 236/47/1 238/48/1
f 256/45/1 255/46/1 238/47/1 239/48/1
f 257/45/1 256/46/1 239/47/1 240/48/1
f 258/65/1 257/66/1 240/67/1 241/68/1
f 259/65/1 258/66/1 241/67/1 242/68/1
f 260/45/1 259/46/1 242/47/1 243/48/1
f 261/45/1 260/46/1 243/47/1 244/48/1
f 262/45/1 261/46/1 244/47/1 245/48/1
f 263/45/1 262/46/1 245/47/1 246/48/1
f 264/45/1 263/46/1 246/47/1 247/48/1
f 265/45/1 264/46/1 247/47/1 248/48/1
f 266/45/1 265/46/1 248/47/1 249/48/1
f 267/45/1 266/46/1 249/47/1 250/48/1
f 268/45/1 267/46/1 250/47/1 251/48/1
f 269/21/1 268/22/1 251/23/1 252/24/1

