# Wavefront OBJ file automatically generated by Tiled2Unity

# Vertices (Count = 266)
v -960 -64 0
v -1024 -64 0
v -1024 0 0
v -960 0 0
v -896 -64 0
v -896 0 0
v -832 -64 0
v -832 0 0
v -768 -64 0
v -768 0 0
v -704 -64 0
v -704 0 0
v -640 -64 0
v -640 0 0
v -576 -64 0
v -576 0 0
v -512 -64 0
v -512 0 0
v -448 -64 0
v -448 0 0
v -384 -64 0
v -384 0 0
v -320 -64 0
v -320 0 0
v -256 -64 0
v -256 0 0
v -192 -64 0
v -192 0 0
v -128 -64 0
v -128 0 0
v -64 -64 0
v -64 0 0
v 0 -64 0
v 0 0 0
v -960 -128 0
v -1024 -128 0
v -896 -128 0
v -832 -128 0
v -768 -128 0
v -704 -128 0
v -640 -128 0
v -576 -128 0
v -512 -128 0
v -448 -128 0
v -384 -128 0
v -320 -128 0
v -256 -128 0
v -192 -128 0
v -128 -128 0
v -64 -128 0
v 0 -128 0
v -960 -192 0
v -1024 -192 0
v -896 -192 0
v -832 -192 0
v -768 -192 0
v -704 -192 0
v -640 -192 0
v -576 -192 0
v -512 -192 0
v -448 -192 0
v -384 -192 0
v -320 -192 0
v -256 -192 0
v -192 -192 0
v -128 -192 0
v -64 -192 0
v 0 -192 0
v -960 -256 0
v -1024 -256 0
v -896 -256 0
v -832 -256 0
v -768 -256 0
v -704 -256 0
v -640 -256 0
v -576 -256 0
v -512 -256 0
v -448 -256 0
v -384 -256 0
v -320 -256 0
v 0 -256 0
v -64 -256 0
v -960 -320 0
v -1024 -320 0
v -896 -320 0
v -832 -320 0
v -768 -320 0
v -704 -320 0
v -640 -320 0
v -576 -320 0
v -512 -320 0
v -448 -320 0
v -384 -320 0
v -320 -320 0
v 0 -320 0
v -64 -320 0
v -960 -384 0
v -1024 -384 0
v -896 -384 0
v -832 -384 0
v -448 -384 0
v -512 -384 0
v -384 -384 0
v -320 -384 0
v 0 -384 0
v -64 -384 0
v -960 -448 0
v -1024 -448 0
v -896 -448 0
v -832 -448 0
v -448 -448 0
v -512 -448 0
v -384 -448 0
v -320 -448 0
v 0 -448 0
v -64 -448 0
v -960 -512 0
v -1024 -512 0
v -896 -512 0
v -832 -512 0
v -448 -512 0
v -512 -512 0
v -384 -512 0
v -320 -512 0
v 0 -512 0
v -64 -512 0
v -960 -576 0
v -1024 -576 0
v -896 -576 0
v -832 -576 0
v -768 -576 0
v -768 -512 0
v -704 -576 0
v -704 -512 0
v -640 -576 0
v -640 -512 0
v -576 -576 0
v -576 -512 0
v -512 -576 0
v -448 -576 0
v -384 -576 0
v -320 -576 0
v 0 -576 0
v -64 -576 0
v -960 -640 0
v -1024 -640 0
v -896 -640 0
v -832 -640 0
v -768 -640 0
v -704 -640 0
v -640 -640 0
v -576 -640 0
v -512 -640 0
v -448 -640 0
v -384 -640 0
v -320 -640 0
v -256 -640 0
v -256 -576 0
v -192 -640 0
v -192 -576 0
v -128 -640 0
v -128 -576 0
v -64 -640 0
v 0 -640 0
v -960 -704 0
v -1024 -704 0
v -896 -704 0
v -832 -704 0
v -768 -704 0
v -704 -704 0
v -640 -704 0
v -576 -704 0
v -512 -704 0
v -448 -704 0
v -384 -704 0
v -320 -704 0
v -256 -704 0
v -192 -704 0
v -128 -704 0
v -64 -704 0
v 0 -704 0
v -960 -768 0
v -1024 -768 0
v -896 -768 0
v -832 -768 0
v -768 -768 0
v -704 -768 0
v -640 -768 0
v -576 -768 0
v -512 -768 0
v -448 -768 0
v -384 -768 0
v -320 -768 0
v -256 -768 0
v -192 -768 0
v -128 -768 0
v -64 -768 0
v 0 -768 0
v -960 -832 0
v -1024 -832 0
v -896 -832 0
v -832 -832 0
v -768 -832 0
v -704 -832 0
v -640 -832 0
v -576 -832 0
v -512 -832 0
v -448 -832 0
v -384 -832 0
v -320 -832 0
v -256 -832 0
v -192 -832 0
v -128 -832 0
v -64 -832 0
v 0 -832 0
v -960 -896 0
v -1024 -896 0
v -896 -896 0
v -832 -896 0
v -768 -896 0
v -704 -896 0
v -640 -896 0
v -576 -896 0
v -512 -896 0
v -448 -896 0
v -384 -896 0
v -320 -896 0
v -256 -896 0
v -192 -896 0
v -128 -896 0
v -64 -896 0
v 0 -896 0
v -960 -960 0
v -1024 -960 0
v -896 -960 0
v -832 -960 0
v -768 -960 0
v -704 -960 0
v -640 -960 0
v -576 -960 0
v -512 -960 0
v -448 -960 0
v -384 -960 0
v -320 -960 0
v -256 -960 0
v -192 -960 0
v -128 -960 0
v -64 -960 0
v 0 -960 0
v -960 -1024 0
v -1024 -1024 0
v -896 -1024 0
v -832 -1024 0
v -768 -1024 0
v -704 -1024 0
v -640 -1024 0
v -576 -1024 0
v -512 -1024 0
v -448 -1024 0
v -384 -1024 0
v -320 -1024 0
v -256 -1024 0
v -192 -1024 0
v -128 -1024 0
v -64 -1024 0
v 0 -1024 0

# Texture cooridinates (Count = 68)
vt 0.7501221 0.7501221
vt 0.8748779 0.7501221
vt 0.8748779 0.8748779
vt 0.7501221 0.8748779
vt 0.8751221 0.8751221
vt 0.9998779 0.8751221
vt 0.9998779 0.9998779
vt 0.8751221 0.9998779
vt 0.7501221 0.8751221
vt 0.8748779 0.8751221
vt 0.8748779 0.9998779
vt 0.7501221 0.9998779
vt 0.6251221 0.8751221
vt 0.7498779 0.8751221
vt 0.7498779 0.9998779
vt 0.6251221 0.9998779
vt 0.5001221 0.7501221
vt 0.6248779 0.7501221
vt 0.6248779 0.8748779
vt 0.5001221 0.8748779
vt 0.2501221 0.7501221
vt 0.3748779 0.7501221
vt 0.3748779 0.8748779
vt 0.2501221 0.8748779
vt 0.1251221 0.7501221
vt 0.2498779 0.7501221
vt 0.2498779 0.8748779
vt 0.1251221 0.8748779
vt 0.1251221 0.8751221
vt 0.2498779 0.8751221
vt 0.2498779 0.9998779
vt 0.1251221 0.9998779
vt 0.8751221 0.7501221
vt 0.9998779 0.7501221
vt 0.9998779 0.8748779
vt 0.8751221 0.8748779
vt 0.6251221 0.7501221
vt 0.7498779 0.7501221
vt 0.7498779 0.8748779
vt 0.6251221 0.8748779
vt 0.5001221 0.8751221
vt 0.6248779 0.8751221
vt 0.6248779 0.9998779
vt 0.5001221 0.9998779
vt 0.3751221 0.8751221
vt 0.4998779 0.8751221
vt 0.4998779 0.9998779
vt 0.3751221 0.9998779
vt 0.3751221 0.7501221
vt 0.4998779 0.7501221
vt 0.4998779 0.8748779
vt 0.3751221 0.8748779
vt 0.2501221 0.8751221
vt 0.3748779 0.8751221
vt 0.3748779 0.9998779
vt 0.2501221 0.9998779
vt 0.8751221 0.6251221
vt 0.9998779 0.6251221
vt 0.9998779 0.7498779
vt 0.8751221 0.7498779
vt 0.7501221 0.6251221
vt 0.8748779 0.6251221
vt 0.8748779 0.7498779
vt 0.7501221 0.7498779
vt 0.6251221 0.6251221
vt 0.7498779 0.6251221
vt 0.7498779 0.7498779
vt 0.6251221 0.7498779

# Normal
vn 0 0 -1

# Groups (Count = 1)

g mesh_0001
f 1/1/1 2/2/1 3/3/1 4/4/1
f 5/1/1 1/2/1 4/3/1 6/4/1
f 7/5/1 5/6/1 6/7/1 8/8/1
f 9/9/1 7/10/1 8/11/1 10/12/1
f 11/9/1 9/10/1 10/11/1 12/12/1
f 13/9/1 11/10/1 12/11/1 14/12/1
f 15/9/1 13/10/1 14/11/1 16/12/1
f 17/9/1 15/10/1 16/11/1 18/12/1
f 19/13/1 17/14/1 18/15/1 20/16/1
f 21/1/1 19/2/1 20/3/1 22/4/1
f 23/1/1 21/2/1 22/3/1 24/4/1
f 25/1/1 23/2/1 24/3/1 26/4/1
f 27/17/1 25/18/1 26/19/1 28/20/1
f 29/21/1 27/22/1 28/23/1 30/24/1
f 31/1/1 29/2/1 30/3/1 32/4/1
f 33/25/1 31/26/1 32/27/1 34/28/1
f 35/29/1 36/30/1 2/31/1 1/32/1
f 37/17/1 35/18/1 1/19/1 5/20/1
f 38/33/1 37/34/1 5/35/1 7/36/1
f 39/1/1 38/2/1 7/3/1 9/4/1
f 40/1/1 39/2/1 9/3/1 11/4/1
f 41/1/1 40/2/1 11/3/1 13/4/1
f 42/1/1 41/2/1 13/3/1 15/4/1
f 43/1/1 42/2/1 15/3/1 17/4/1
f 44/37/1 43/38/1 17/39/1 19/40/1
f 45/41/1 44/42/1 19/43/1 21/44/1
f 46/45/1 45/46/1 21/47/1 23/48/1
f 47/45/1 46/46/1 23/47/1 25/48/1
f 48/49/1 47/50/1 25/51/1 27/52/1
f 49/49/1 48/50/1 27/51/1 29/52/1
f 50/53/1 49/54/1 29/55/1 31/56/1
f 51/25/1 50/26/1 31/27/1 33/28/1
f 52/29/1 53/30/1 36/31/1 35/32/1
f 54/17/1 52/18/1 35/19/1 37/20/1
f 55/57/1 54/58/1 37/59/1 38/60/1
f 56/61/1 55/62/1 38/63/1 39/64/1
f 57/61/1 56/62/1 39/63/1 40/64/1
f 58/61/1 57/62/1 40/63/1 41/64/1
f 59/61/1 58/62/1 41/63/1 42/64/1
f 60/61/1 59/62/1 42/63/1 43/64/1
f 61/65/1 60/66/1 43/67/1 44/68/1
f 62/17/1 61/18/1 44/19/1 45/20/1
f 63/5/1 62/6/1 45/7/1 46/8/1
f 64/9/1 63/10/1 46/11/1 47/12/1
f 65/9/1 64/10/1 47/11/1 48/12/1
f 66/9/1 65/10/1 48/11/1 49/12/1
f 67/9/1 66/10/1 49/11/1 50/12/1
f 68/25/1 67/26/1 50/27/1 51/28/1
f 69/29/1 70/30/1 53/31/1 52/32/1
f 71/17/1 69/18/1 52/19/1 54/20/1
f 72/45/1 71/46/1 54/47/1 55/48/1
f 73/45/1 72/46/1 55/47/1 56/48/1
f 74/45/1 73/46/1 56/47/1 57/48/1
f 75/45/1 74/46/1 57/47/1 58/48/1
f 76/45/1 75/46/1 58/47/1 59/48/1
f 77/45/1 76/46/1 59/47/1 60/48/1
f 78/45/1 77/46/1 60/47/1 61/48/1
f 79/49/1 78/50/1 61/51/1 62/52/1
f 80/25/1 79/26/1 62/27/1 63/28/1
f 81/25/1 82/26/1 67/27/1 68/28/1
f 83/29/1 84/30/1 70/31/1 69/32/1
f 85/17/1 83/18/1 69/19/1 71/20/1
f 86/5/1 85/6/1 71/7/1 72/8/1
f 87/9/1 86/10/1 72/11/1 73/12/1
f 88/9/1 87/10/1 73/11/1 74/12/1
f 89/9/1 88/10/1 74/11/1 75/12/1
f 90/9/1 89/10/1 75/11/1 76/12/1
f 91/9/1 90/10/1 76/11/1 77/12/1
f 92/13/1 91/14/1 77/15/1 78/16/1
f 93/17/1 92/18/1 78/19/1 79/20/1
f 94/25/1 93/26/1 79/27/1 80/28/1
f 95/25/1 96/26/1 82/27/1 81/28/1
f 97/29/1 98/30/1 84/31/1 83/32/1
f 99/17/1 97/18/1 83/19/1 85/20/1
f 100/25/1 99/26/1 85/27/1 86/28/1
f 101/29/1 102/30/1 91/31/1 92/32/1
f 103/17/1 101/18/1 92/19/1 93/20/1
f 104/25/1 103/26/1 93/27/1 94/28/1
f 105/25/1 106/26/1 96/27/1 95/28/1
f 107/29/1 108/30/1 98/31/1 97/32/1
f 109/17/1 107/18/1 97/19/1 99/20/1
f 110/25/1 109/26/1 99/27/1 100/28/1
f 111/29/1 112/30/1 102/31/1 101/32/1
f 113/17/1 111/18/1 101/19/1 103/20/1
f 114/25/1 113/26/1 103/27/1 104/28/1
f 115/25/1 116/26/1 106/27/1 105/28/1
f 117/29/1 118/30/1 108/31/1 107/32/1
f 119/17/1 117/18/1 107/19/1 109/20/1
f 120/25/1 119/26/1 109/27/1 110/28/1
f 121/29/1 122/30/1 112/31/1 111/32/1
f 123/17/1 121/18/1 111/19/1 113/20/1
f 124/25/1 123/26/1 113/27/1 114/28/1
f 125/25/1 126/26/1 116/27/1 115/28/1
f 127/29/1 128/30/1 118/31/1 117/32/1
f 129/17/1 127/18/1 117/19/1 119/20/1
f 130/33/1 129/34/1 119/35/1 120/36/1
f 131/1/1 130/2/1 120/3/1 132/4/1
f 133/1/1 131/2/1 132/3/1 134/4/1
f 135/1/1 133/2/1 134/3/1 136/4/1
f 137/1/1 135/2/1 136/3/1 138/4/1
f 139/1/1 137/2/1 138/3/1 122/4/1
f 140/37/1 139/38/1 122/39/1 121/40/1
f 141/17/1 140/18/1 121/19/1 123/20/1
f 142/25/1 141/26/1 123/27/1 124/28/1
f 143/25/1 144/26/1 126/27/1 125/28/1
f 145/29/1 146/30/1 128/31/1 127/32/1
f 147/17/1 145/18/1 127/19/1 129/20/1
f 148/57/1 147/58/1 129/59/1 130/60/1
f 149/61/1 148/62/1 130/63/1 131/64/1
f 150/61/1 149/62/1 131/63/1 133/64/1
f 151/61/1 150/62/1 133/63/1 135/64/1
f 152/61/1 151/62/1 135/63/1 137/64/1
f 153/61/1 152/62/1 137/63/1 139/64/1
f 154/65/1 153/66/1 139/67/1 140/68/1
f 155/17/1 154/18/1 140/19/1 141/20/1
f 156/33/1 155/34/1 141/35/1 142/36/1
f 157/1/1 156/2/1 142/3/1 158/4/1
f 159/1/1 157/2/1 158/3/1 160/4/1
f 161/1/1 159/2/1 160/3/1 162/4/1
f 163/1/1 161/2/1 162/3/1 144/4/1
f 164/25/1 163/26/1 144/27/1 143/28/1
f 165/29/1 166/30/1 146/31/1 145/32/1
f 167/17/1 165/18/1 145/19/1 147/20/1
f 168/45/1 167/46/1 147/47/1 148/48/1
f 169/45/1 168/46/1 148/47/1 149/48/1
f 170/45/1 169/46/1 149/47/1 150/48/1
f 171/45/1 170/46/1 150/47/1 151/48/1
f 172/45/1 171/46/1 151/47/1 152/48/1
f 173/45/1 172/46/1 152/47/1 153/48/1
f 174/45/1 173/46/1 153/47/1 154/48/1
f 175/49/1 174/50/1 154/51/1 155/52/1
f 176/45/1 175/46/1 155/47/1 156/48/1
f 177/45/1 176/46/1 156/47/1 157/48/1
f 178/45/1 177/46/1 157/47/1 159/48/1
f 179/45/1 178/46/1 159/47/1 161/48/1
f 180/45/1 179/46/1 161/47/1 163/48/1
f 181/25/1 180/26/1 163/27/1 164/28/1
f 182/37/1 183/38/1 166/39/1 165/40/1
f 184/17/1 182/18/1 165/19/1 167/20/1
f 185/5/1 184/6/1 167/7/1 168/8/1
f 186/9/1 185/10/1 168/11/1 169/12/1
f 187/9/1 186/10/1 169/11/1 170/12/1
f 188/9/1 187/10/1 170/11/1 171/12/1
f 189/13/1 188/14/1 171/15/1 172/16/1
f 190/17/1 189/18/1 172/19/1 173/20/1
f 191/49/1 190/50/1 173/51/1 174/52/1
f 192/49/1 191/50/1 174/51/1 175/52/1
f 193/5/1 192/6/1 175/7/1 176/8/1
f 194/9/1 193/10/1 176/11/1 177/12/1
f 195/9/1 194/10/1 177/11/1 178/12/1
f 196/9/1 195/10/1 178/11/1 179/12/1
f 197/9/1 196/10/1 179/11/1 180/12/1
f 198/9/1 197/10/1 180/11/1 181/12/1
f 199/41/1 200/42/1 183/43/1 182/44/1
f 201/49/1 199/50/1 182/51/1 184/52/1
f 202/33/1 201/34/1 184/35/1 185/36/1
f 203/1/1 202/2/1 185/3/1 186/4/1
f 204/1/1 203/2/1 186/3/1 187/4/1
f 205/1/1 204/2/1 187/3/1 188/4/1
f 206/37/1 205/38/1 188/39/1 189/40/1
f 207/17/1 206/18/1 189/19/1 190/20/1
f 208/49/1 207/50/1 190/51/1 191/52/1
f 209/49/1 208/50/1 191/51/1 192/52/1
f 210/33/1 209/34/1 192/35/1 193/36/1
f 211/1/1 210/2/1 193/3/1 194/4/1
f 212/1/1 211/2/1 194/3/1 195/4/1
f 213/1/1 212/2/1 195/3/1 196/4/1
f 214/1/1 213/2/1 196/3/1 197/4/1
f 215/1/1 214/2/1 197/3/1 198/4/1
f 216/49/1 217/50/1 200/51/1 199/52/1
f 218/49/1 216/50/1 199/51/1 201/52/1
f 219/57/1 218/58/1 201/59/1 202/60/1
f 220/61/1 219/62/1 202/63/1 203/64/1
f 221/61/1 220/62/1 203/63/1 204/64/1
f 222/61/1 221/62/1 204/63/1 205/64/1
f 223/65/1 222/66/1 205/67/1 206/68/1
f 224/17/1 223/18/1 206/19/1 207/20/1
f 225/49/1 224/50/1 207/51/1 208/52/1
f 226/49/1 225/50/1 208/51/1 209/52/1
f 227/57/1 226/58/1 209/59/1 210/60/1
f 228/61/1 227/62/1 210/63/1 211/64/1
f 229/61/1 228/62/1 211/63/1 212/64/1
f 230/61/1 229/62/1 212/63/1 213/64/1
f 231/61/1 230/62/1 213/63/1 214/64/1
f 232/25/1 231/26/1 214/27/1 215/28/1
f 233/13/1 234/14/1 217/15/1 216/16/1
f 235/49/1 233/50/1 216/51/1 218/52/1
f 236/45/1 235/46/1 218/47/1 219/48/1
f 237/45/1 236/46/1 219/47/1 220/48/1
f 238/45/1 237/46/1 220/47/1 221/48/1
f 239/45/1 238/46/1 221/47/1 222/48/1
f 240/45/1 239/46/1 222/47/1 223/48/1
f 241/49/1 240/50/1 223/51/1 224/52/1
f 242/49/1 241/50/1 224/51/1 225/52/1
f 243/49/1 242/50/1 225/51/1 226/52/1
f 244/49/1 243/50/1 226/51/1 227/52/1
f 245/49/1 244/50/1 227/51/1 228/52/1
f 246/49/1 245/50/1 228/51/1 229/52/1
f 247/49/1 246/50/1 229/51/1 230/52/1
f 248/49/1 247/50/1 230/51/1 231/52/1
f 249/25/1 248/26/1 231/27/1 232/28/1
f 250/9/1 251/10/1 234/11/1 233/12/1
f 252/9/1 250/10/1 233/11/1 235/12/1
f 253/9/1 252/10/1 235/11/1 236/12/1
f 254/9/1 253/10/1 236/11/1 237/12/1
f 255/9/1 254/10/1 237/11/1 238/12/1
f 256/9/1 255/10/1 238/11/1 239/12/1
f 257/9/1 256/10/1 239/11/1 240/12/1
f 258/9/1 257/10/1 240/11/1 241/12/1
f 259/9/1 258/10/1 241/11/1 242/12/1
f 260/9/1 259/10/1 242/11/1 243/12/1
f 261/9/1 260/10/1 243/11/1 244/12/1
f 262/17/1 261/18/1 244/19/1 245/20/1
f 263/21/1 262/22/1 245/23/1 246/24/1
f 264/9/1 263/10/1 246/11/1 247/12/1
f 265/9/1 264/10/1 247/11/1 248/12/1
f 266/9/1 265/10/1 248/11/1 249/12/1

